<mxfile host="app.diagrams.net" modified="2024-06-15T01:09:59.876Z" agent="Mozilla/5.0 (Windows NT 10.0; Win64; x64) AppleWebKit/537.36 (KHTML, like Gecko) Chrome/125.0.0.0 Safari/537.36" version="24.5.4" etag="tiQkhPoeXPgiuOfUicHO" type="github">
  <diagram name="Page-1" id="c9JLlH7jQSfWojhBxx3O">
    <mxGraphModel>
      <root>
        <mxCell id="0" />
        <mxCell id="1" parent="0" />
      </root>
    </mxGraphModel>
  </diagram>
</mxfile>
